# xmcd CD database file
#
# Track frame offsets:
#	150
#	22978
#	36903
#	56958
#	72054
#	89648
#	110135
#	139191
#	157607
#	185087
#	209892
#	215060
#
# Disc length: 3103 seconds
#
# Revision: 0
# Processed by: cddbd v1.5.1PL2 Copyright (c) Steve Scherf et al.
# Submitted via: CDex 1.51
#
DISCID=bc0c1d0c
DTITLE=So Weiss - HUNTER - DANCER
DYEAR=2006
DGENRE=Jazz
TTITLE0=When we two parted
TTITLE1=Hunter/Dancer
TTITLE2=When I have fears
TTITLE3=Die Richtung des Taus
TTITLE4=So White
TTITLE5=You say you love
TTITLE6=Tage, Nächte
TTITLE7=Schleicht sich
TTITLE8=Subway
TTITLE9=la belle Dame sans merci
TTITLE10=Interrogativa cantilena
TTITLE11=Sunpoem
EXTD=YEAR: 2006
EXTT0=
EXTT1=
EXTT2=
EXTT3=
EXTT4=
EXTT5=
EXTT6=
EXTT7=
EXTT8=
EXTT9=
EXTT10=
EXTT11=
PLAYORDER=
